<svg width="229" height="89" viewBox="0 0 229 89" fill="none" xmlns="http://www.w3.org/2000/svg">
<rect x="16" y="16" width="56.8571" height="56.8571" rx="28.4286" fill="black"/>
<path d="M48.5772 54.4286L42.151 45.8952H40.4157V54.4286H36.8784V34.9019H40.4157V42.93H41.3024L48.2435 34.9019H52.6008L44.8874 43.8071L52.9345 54.4286H48.5772Z" fill="white"/>
<path d="M84.8964 54.4286V33.7533H88.6418V42.506H98.2223V33.7533H101.978V54.4286H98.2223V45.6456H88.6418V54.4286H84.8964ZM109.499 54.7415C108.516 54.7415 107.631 54.5666 106.844 54.2166C106.063 53.8599 105.444 53.3349 104.986 52.6417C104.536 51.9485 104.31 51.0938 104.31 50.0775C104.31 49.2026 104.472 48.479 104.795 47.907C105.118 47.3349 105.559 46.8772 106.117 46.534C106.676 46.1908 107.305 45.9316 108.005 45.7567C108.712 45.5749 109.442 45.4437 110.196 45.3629C111.104 45.2687 111.841 45.1846 112.407 45.1106C112.972 45.0298 113.382 44.9087 113.638 44.7471C113.901 44.5789 114.032 44.3198 114.032 43.9698V43.9092C114.032 43.1487 113.806 42.5598 113.356 42.1425C112.905 41.7252 112.255 41.5166 111.407 41.5166C110.512 41.5166 109.802 41.7118 109.277 42.1021C108.759 42.4925 108.409 42.9535 108.227 43.4852L104.815 43.0006C105.084 42.0584 105.528 41.271 106.147 40.6383C106.767 39.9989 107.524 39.5211 108.419 39.2048C109.314 38.8817 110.303 38.7202 111.387 38.7202C112.134 38.7202 112.878 38.8077 113.618 38.9827C114.358 39.1577 115.035 39.4471 115.647 39.8509C116.26 40.248 116.751 40.7897 117.121 41.4762C117.498 42.1627 117.686 43.0208 117.686 44.0505V54.4286H114.173V52.2985H114.052C113.83 52.7292 113.517 53.133 113.113 53.5099C112.716 53.8801 112.215 54.1796 111.609 54.4084C111.01 54.6305 110.307 54.7415 109.499 54.7415ZM110.448 52.0562C111.182 52.0562 111.818 51.9115 112.356 51.6221C112.894 51.3259 113.308 50.9356 113.598 50.451C113.894 49.9664 114.042 49.4381 114.042 48.866V47.0388C113.928 47.133 113.732 47.2205 113.456 47.3013C113.187 47.382 112.884 47.4527 112.548 47.5133C112.211 47.5738 111.878 47.6277 111.548 47.6748C111.219 47.7219 110.933 47.7623 110.69 47.7959C110.145 47.87 109.657 47.9911 109.226 48.1594C108.796 48.3276 108.456 48.5632 108.207 48.866C107.958 49.1622 107.833 49.5458 107.833 50.0169C107.833 50.6899 108.079 51.1981 108.57 51.5413C109.062 51.8846 109.688 52.0562 110.448 52.0562ZM119.65 50.1784H123.274C123.308 50.7572 123.567 51.2048 124.052 51.5211C124.536 51.8374 125.166 51.9956 125.94 51.9956C126.727 51.9956 127.39 51.824 127.928 51.4807C128.474 51.1308 128.746 50.6024 128.746 49.8958C128.746 49.4785 128.642 49.1117 128.433 48.7954C128.225 48.4723 127.932 48.2233 127.555 48.0483C127.178 47.8733 126.734 47.7858 126.222 47.7858H123.85V45.1913H126.222C126.983 45.1913 127.558 45.0163 127.949 44.6664C128.346 44.3164 128.544 43.8756 128.544 43.3439C128.544 42.7718 128.336 42.3074 127.918 41.9507C127.508 41.594 126.939 41.4157 126.212 41.4157C125.485 41.4157 124.88 41.5805 124.395 41.9103C123.917 42.2401 123.668 42.6641 123.648 43.1823H120.044C120.057 42.2805 120.327 41.4964 120.852 40.8301C121.383 40.1638 122.097 39.6456 122.992 39.2754C123.894 38.9053 124.91 38.7202 126.041 38.7202C127.252 38.7202 128.299 38.9019 129.18 39.2653C130.062 39.6288 130.742 40.1369 131.219 40.7897C131.697 41.4358 131.936 42.1964 131.936 43.0713C131.936 43.9126 131.674 44.6092 131.149 45.161C130.624 45.7062 129.917 46.0965 129.029 46.3321V46.4936C129.641 46.5273 130.193 46.7023 130.684 47.0186C131.176 47.3282 131.566 47.7488 131.855 48.2805C132.145 48.8122 132.29 49.428 132.29 50.128C132.29 51.0769 132.017 51.898 131.472 52.5912C130.927 53.2777 130.176 53.806 129.221 54.1762C128.272 54.5464 127.185 54.7315 125.96 54.7315C124.769 54.7315 123.702 54.5531 122.76 54.1964C121.824 53.833 121.08 53.3114 120.528 52.6316C119.977 51.9519 119.684 51.1341 119.65 50.1784ZM134.314 54.4286V38.9221H140.825C142.663 38.9221 144.113 39.2889 145.177 40.0225C146.247 40.7561 146.782 41.7791 146.782 43.0915C146.782 43.9597 146.479 44.6697 145.873 45.2216C145.274 45.7668 144.456 46.1336 143.42 46.322C144.234 46.3893 144.948 46.5946 145.56 46.9378C146.179 47.2811 146.664 47.732 147.014 48.2906C147.364 48.8492 147.539 49.492 147.539 50.2188C147.539 51.0736 147.313 51.8173 146.862 52.4499C146.418 53.0758 145.769 53.5638 144.914 53.9137C144.066 54.257 143.036 54.4286 141.825 54.4286H134.314ZM137.736 51.5514H141.825C142.498 51.5514 143.026 51.3932 143.41 51.0769C143.793 50.7539 143.985 50.3164 143.985 49.7645C143.985 49.1252 143.793 48.6237 143.41 48.2603C143.026 47.8902 142.498 47.7051 141.825 47.7051H137.736V51.5514ZM137.736 45.3428H140.896C141.394 45.3428 141.821 45.2721 142.178 45.1307C142.535 44.9827 142.807 44.7774 142.996 44.5149C143.184 44.2457 143.279 43.926 143.279 43.5559C143.279 43.0242 143.06 42.6069 142.622 42.304C142.192 42.0012 141.593 41.8498 140.825 41.8498H137.736V45.3428ZM154.164 54.7415C153.182 54.7415 152.296 54.5666 151.509 54.2166C150.728 53.8599 150.109 53.3349 149.652 52.6417C149.201 51.9485 148.975 51.0938 148.975 50.0775C148.975 49.2026 149.137 48.479 149.46 47.907C149.783 47.3349 150.224 46.8772 150.782 46.534C151.341 46.1908 151.97 45.9316 152.67 45.7567C153.377 45.5749 154.107 45.4437 154.861 45.3629C155.769 45.2687 156.506 45.1846 157.072 45.1106C157.637 45.0298 158.047 44.9087 158.303 44.7471C158.566 44.5789 158.697 44.3198 158.697 43.9698V43.9092C158.697 43.1487 158.471 42.5598 158.021 42.1425C157.57 41.7252 156.92 41.5166 156.072 41.5166C155.177 41.5166 154.467 41.7118 153.942 42.1021C153.424 42.4925 153.074 42.9535 152.892 43.4852L149.48 43.0006C149.749 42.0584 150.193 41.271 150.812 40.6383C151.432 39.9989 152.189 39.5211 153.084 39.2048C153.979 38.8817 154.968 38.7202 156.052 38.7202C156.799 38.7202 157.543 38.8077 158.283 38.9827C159.023 39.1577 159.7 39.4471 160.312 39.8509C160.925 40.248 161.416 40.7897 161.786 41.4762C162.163 42.1627 162.351 43.0208 162.351 44.0505V54.4286H158.838V52.2985H158.717C158.495 52.7292 158.182 53.133 157.778 53.5099C157.381 53.8801 156.88 54.1796 156.274 54.4084C155.675 54.6305 154.972 54.7415 154.164 54.7415ZM155.113 52.0562C155.847 52.0562 156.483 51.9115 157.021 51.6221C157.56 51.3259 157.973 50.9356 158.263 50.451C158.559 49.9664 158.707 49.4381 158.707 48.866V47.0388C158.593 47.133 158.397 47.2205 158.122 47.3013C157.852 47.382 157.549 47.4527 157.213 47.5133C156.876 47.5738 156.543 47.6277 156.213 47.6748C155.884 47.7219 155.598 47.7623 155.355 47.7959C154.81 47.87 154.322 47.9911 153.892 48.1594C153.461 48.3276 153.121 48.5632 152.872 48.866C152.623 49.1622 152.498 49.5458 152.498 50.0169C152.498 50.6899 152.744 51.1981 153.235 51.5413C153.727 51.8846 154.353 52.0562 155.113 52.0562ZM175.824 45.161V48.1594H167.566V45.161H175.824ZM168.697 38.9221V54.4286H165.173V38.9221H168.697ZM178.217 38.9221V54.4286H174.703V38.9221H178.217ZM184.584 49.4819L190.793 38.9221H194.549V54.4286H191.015V43.8587L184.827 54.4286H181.061V38.9221H184.584V49.4819ZM204.314 54.7315C202.759 54.7315 201.416 54.4084 200.285 53.7623C199.162 53.1095 198.297 52.1874 197.691 50.9962C197.085 49.7982 196.782 48.3882 196.782 46.7662C196.782 45.1711 197.085 43.7712 197.691 42.5665C198.303 41.3551 199.158 40.4128 200.255 39.7398C201.352 39.0601 202.641 38.7202 204.122 38.7202C205.077 38.7202 205.979 38.875 206.827 39.1846C207.682 39.4874 208.436 39.9586 209.089 40.5979C209.748 41.2373 210.266 42.0517 210.643 43.041C211.02 44.0236 211.209 45.1947 211.209 46.5542V47.6748H198.499V45.2115H207.706C207.699 44.5116 207.547 43.889 207.251 43.3439C206.955 42.792 206.541 42.3579 206.01 42.0416C205.485 41.7252 204.872 41.5671 204.172 41.5671C203.425 41.5671 202.769 41.7488 202.204 42.1122C201.638 42.4689 201.197 42.9401 200.881 43.5256C200.571 44.1044 200.413 44.7404 200.407 45.4336V47.5839C200.407 48.4858 200.571 49.2598 200.901 49.9059C201.231 50.5452 201.692 51.0365 202.284 51.3798C202.877 51.7163 203.57 51.8846 204.364 51.8846C204.896 51.8846 205.377 51.8105 205.808 51.6625C206.238 51.5077 206.612 51.2822 206.928 50.9861C207.245 50.6899 207.483 50.3231 207.645 49.8857L211.057 50.2693C210.842 51.1711 210.431 51.9586 209.826 52.6316C209.227 53.2979 208.459 53.8161 207.524 54.1863C206.588 54.5497 205.518 54.7315 204.314 54.7315Z" fill="black"/>
</svg>
