<svg width="476" height="237" viewBox="0 0 476 237" fill="none" xmlns="http://www.w3.org/2000/svg">
<path d="M200.414 90.4265H176.004V58.8252H180.834V86.2857H195.603V58.8252H200.414V90.4265ZM198.909 97.2124V90.4265H197.236V86.3748H203.571L203.462 97.2124H198.909Z" fill="black"/>
<path d="M207.48 90.4265V58.8252H227.673V62.9859H212.311V72.3771H226.575V76.4883H212.311V86.2658H227.782V90.4265H207.48Z" fill="black"/>
<path d="M232.535 90.4265V58.8252H237.366V72.1889H253.005V58.8252H257.816V90.4265H253.005V76.3496H237.366V90.4265H232.535Z" fill="black"/>
<path d="M262.051 62.9859V58.8252H286.609V62.9859H276.76V90.4265H271.949V62.9859H262.051Z" fill="black"/>
<path d="M290.867 90.4265V58.8252H302.27C304.676 58.8252 306.685 59.2611 308.308 60.1427C309.932 61.0244 311.159 62.2231 311.981 63.7586C312.802 65.2941 313.218 67.0376 313.218 68.9891C313.218 70.9407 312.802 72.704 311.971 74.2395C311.139 75.775 309.902 76.9836 308.269 77.8652C306.635 78.7469 304.616 79.1927 302.201 79.1927H294.173V75.0815H301.825C303.339 75.0815 304.577 74.824 305.547 74.3089C306.517 73.7937 307.229 73.0805 307.695 72.1592C308.16 71.2379 308.397 70.1878 308.397 68.999C308.397 67.8103 308.16 66.7602 307.695 65.8587C307.229 64.9572 306.507 64.244 305.537 63.7388C304.567 63.2335 303.32 62.976 301.805 62.976H295.708V90.4364H290.877L290.867 90.4265Z" fill="black"/>
<path d="M187.822 136.114C186.08 136.114 184.467 135.857 182.982 135.332C181.497 134.807 180.171 134.074 179.032 133.113C177.884 132.162 176.944 131.033 176.211 129.725C175.479 128.417 174.984 126.971 174.727 125.386H179.557C179.785 126.416 180.151 127.328 180.646 128.12C181.151 128.913 181.764 129.576 182.487 130.121C183.219 130.666 184.031 131.072 184.942 131.34C185.852 131.607 186.813 131.746 187.832 131.746C189.693 131.746 191.346 131.29 192.771 130.369C194.197 129.447 195.315 128.11 196.127 126.347C196.939 124.583 197.345 122.434 197.345 119.888C197.345 117.342 196.939 115.192 196.137 113.419C195.335 111.656 194.207 110.308 192.781 109.377C191.346 108.456 189.693 107.99 187.812 107.99C186.793 107.99 185.833 108.129 184.932 108.396C184.031 108.664 183.21 109.07 182.487 109.615C181.764 110.16 181.141 110.824 180.646 111.606C180.151 112.389 179.785 113.31 179.577 114.37H174.727C174.994 112.686 175.509 111.18 176.271 109.853C177.033 108.525 177.993 107.396 179.151 106.475C180.309 105.543 181.626 104.84 183.091 104.355C184.556 103.869 186.14 103.622 187.812 103.622C190.584 103.622 193.039 104.275 195.197 105.593C197.354 106.91 199.047 108.783 200.284 111.21C201.522 113.647 202.135 116.53 202.135 119.888C202.135 123.246 201.522 126.089 200.284 128.516C199.047 130.943 197.354 132.826 195.197 134.133C193.039 135.451 190.584 136.105 187.812 136.105L187.822 136.114ZM184.734 121.612V117.52H198.681V121.612H184.734Z" fill="black"/>
<path d="M207.023 135.669V104.067H211.854V117.51H215.962L225.88 104.067H231.641L220.01 119.402L232.156 135.669H226.415L216.09 121.631H211.854V135.669H207.023Z" fill="black"/>
<path d="M246.858 136.115C244.087 136.115 241.622 135.461 239.464 134.143C237.306 132.826 235.604 130.964 234.376 128.536C233.149 126.109 232.535 123.227 232.535 119.898C232.535 116.57 233.149 113.657 234.386 111.22C235.623 108.793 237.316 106.911 239.484 105.603C241.642 104.286 244.106 103.632 246.858 103.632C248.541 103.632 250.115 103.88 251.58 104.365C253.045 104.85 254.361 105.564 255.519 106.485C256.678 107.406 257.638 108.535 258.4 109.863C259.162 111.19 259.677 112.696 259.944 114.38H255.094C254.886 113.35 254.53 112.439 254.035 111.656C253.54 110.873 252.926 110.21 252.203 109.665C251.481 109.12 250.659 108.714 249.768 108.436C248.868 108.159 247.917 108.02 246.898 108.02C245.037 108.02 243.374 108.486 241.929 109.417C240.484 110.348 239.345 111.706 238.524 113.469C237.702 115.242 237.296 117.382 237.296 119.898C237.296 122.414 237.712 124.554 238.534 126.327C239.355 128.091 240.494 129.438 241.949 130.359C243.404 131.281 245.047 131.736 246.898 131.736C247.898 131.736 248.848 131.598 249.749 131.32C250.649 131.043 251.461 130.637 252.184 130.102C252.906 129.567 253.53 128.903 254.025 128.11C254.53 127.318 254.886 126.416 255.094 125.396H259.944C259.707 126.981 259.212 128.427 258.459 129.735C257.707 131.043 256.767 132.182 255.618 133.143C254.47 134.104 253.164 134.847 251.679 135.362C250.194 135.877 248.581 136.135 246.848 136.135L246.858 136.115Z" fill="black"/>
<path d="M289.847 104.067V135.669H285.036V108.228H269.397V135.669H264.566V104.067H289.847Z" fill="black"/>
<path d="M296.062 135.669V104.067H316.255V108.228H300.893V117.619H315.157V121.73H300.893V131.508H316.364V135.669H296.062Z" fill="black"/>
<path d="M321.117 135.669V104.067H332.52C334.926 104.067 336.935 104.503 338.558 105.385C340.182 106.267 341.409 107.465 342.231 109.001C343.052 110.536 343.468 112.28 343.468 114.231C343.468 116.183 343.052 117.946 342.221 119.482C341.389 121.017 340.152 122.226 338.519 123.107C336.885 123.989 334.866 124.435 332.451 124.435H324.423V120.324H332.075C333.589 120.324 334.827 120.066 335.797 119.551C336.767 119.036 337.479 118.323 337.945 117.401C338.41 116.48 338.647 115.43 338.647 114.241C338.647 113.052 338.41 112.002 337.945 111.101C337.479 110.199 336.757 109.486 335.787 108.981C334.817 108.476 333.57 108.218 332.055 108.218H325.958V135.679H321.127L321.117 135.669Z" fill="black"/>
<path d="M346.316 108.228V104.067H370.875V108.228H361.026V135.669H356.215V108.228H346.316Z" fill="black"/>
<path d="M400.857 135.669H395.987V118.769C395.987 118.164 396.007 117.342 396.037 116.322C396.076 115.301 396.126 114.113 396.185 112.765C396.244 111.418 396.314 109.962 396.383 108.397L397.125 108.605C396.205 110.289 395.413 111.735 394.74 112.954C394.067 114.172 393.463 115.242 392.928 116.153C392.394 117.065 391.859 117.946 391.335 118.778L380.654 135.659H375.121V104.058H379.971V122.236C379.971 122.9 379.961 123.742 379.942 124.762C379.922 125.782 379.882 126.872 379.823 128.031C379.763 129.19 379.684 130.329 379.566 131.449L378.991 131.211C379.526 130.042 380.07 128.933 380.605 127.892C381.139 126.852 381.654 125.911 382.149 125.069C382.644 124.227 383.07 123.514 383.416 122.939L395.344 104.068H400.827V135.669H400.857Z" fill="black"/>
<path d="M416.596 136.115C414.418 136.115 412.498 135.729 410.835 134.946C409.172 134.173 407.855 133.093 406.895 131.736C405.935 130.369 405.43 128.794 405.391 127.001H410.221C410.28 128.031 410.577 128.933 411.132 129.686C411.686 130.439 412.428 131.023 413.369 131.429C414.309 131.835 415.368 132.033 416.556 132.033C417.813 132.033 418.922 131.816 419.882 131.38C420.842 130.944 421.594 130.33 422.149 129.537C422.703 128.745 422.97 127.833 422.97 126.803C422.97 125.773 422.693 124.822 422.149 124.029C421.594 123.237 420.803 122.613 419.763 122.167C418.724 121.711 417.487 121.493 416.041 121.493H413.369V117.57H416.041C417.229 117.57 418.278 117.362 419.179 116.956C420.08 116.55 420.783 115.965 421.288 115.222C421.792 114.479 422.04 113.618 422.04 112.627C422.04 111.636 421.822 110.755 421.377 110.022C420.931 109.288 420.298 108.714 419.476 108.308C418.655 107.902 417.694 107.694 416.596 107.694C415.497 107.694 414.547 107.892 413.656 108.278C412.765 108.664 412.062 109.229 411.518 109.952C410.973 110.675 410.686 111.557 410.657 112.567H406.034C406.074 110.814 406.569 109.269 407.509 107.931C408.449 106.594 409.716 105.554 411.3 104.791C412.894 104.038 414.675 103.662 416.655 103.662C418.635 103.662 420.436 104.058 421.951 104.84C423.465 105.623 424.633 106.673 425.455 107.981C426.276 109.288 426.692 110.745 426.692 112.34C426.692 114.083 426.187 115.559 425.188 116.797C424.188 118.026 422.842 118.858 421.159 119.304V119.512C422.555 119.72 423.752 120.176 424.752 120.859C425.752 121.543 426.504 122.414 427.029 123.455C427.553 124.505 427.811 125.674 427.811 126.971C427.811 128.735 427.326 130.32 426.356 131.697C425.386 133.074 424.059 134.173 422.357 134.966C420.654 135.758 418.734 136.155 416.576 136.155L416.596 136.115Z" fill="black"/>
<path d="M436.117 116.114H444.551C446.827 116.114 448.787 116.5 450.44 117.282C452.093 118.055 453.37 119.175 454.261 120.611C455.152 122.047 455.607 123.761 455.607 125.743C455.607 127.724 455.162 129.517 454.271 131.013C453.38 132.509 452.113 133.658 450.47 134.46C448.827 135.263 446.867 135.669 444.59 135.669H432.762V104.067H437.592V131.597H444.501C446.451 131.597 447.995 131.062 449.134 130.002C450.272 128.942 450.836 127.506 450.836 125.693C450.836 124.544 450.579 123.563 450.064 122.741C449.55 121.919 448.817 121.285 447.867 120.839C446.917 120.393 445.798 120.175 444.501 120.175H436.107V116.104L436.117 116.114ZM464.348 104.067V135.669H459.517V104.067H464.348Z" fill="black"/>
<path d="M176.004 180.911V149.31H187.407C189.812 149.31 191.822 149.746 193.445 150.628C195.068 151.509 196.296 152.708 197.117 154.243C197.939 155.779 198.355 157.522 198.355 159.474C198.355 161.426 197.939 163.189 197.107 164.724C196.276 166.26 195.039 167.468 193.405 168.35C191.772 169.232 189.753 169.678 187.338 169.678H179.31V165.566H186.962C188.476 165.566 189.713 165.309 190.683 164.794C191.653 164.279 192.366 163.565 192.831 162.644C193.297 161.723 193.534 160.673 193.534 159.484C193.534 158.295 193.297 157.245 192.831 156.344C192.366 155.442 191.644 154.729 190.673 154.224C189.703 153.718 188.456 153.461 186.942 153.461H180.844V180.921H176.014L176.004 180.911Z" fill="black"/>
<path d="M202.699 180.911V149.31H222.892V153.471H207.53V162.862H221.793V166.973H207.53V176.751H223.001V180.911H202.699Z" fill="black"/>
<path d="M227.754 180.911V149.31H247.947V153.471H232.584V162.862H246.848V166.973H232.584V176.751H248.056V180.911H227.754Z" fill="black"/>
<path d="M265.804 181.357C263.032 181.357 260.567 180.703 258.409 179.386C256.252 178.068 254.549 176.206 253.322 173.779C252.094 171.352 251.48 168.469 251.48 165.14C251.48 161.812 252.094 158.899 253.331 156.462C254.569 154.035 256.261 152.153 258.429 150.845C260.587 149.528 263.052 148.874 265.804 148.874C267.486 148.874 269.06 149.122 270.525 149.607C271.99 150.092 273.307 150.806 274.465 151.727C275.623 152.648 276.583 153.778 277.345 155.105C278.107 156.433 278.622 157.938 278.889 159.622H274.039C273.831 158.592 273.475 157.681 272.98 156.898C272.485 156.116 271.871 155.452 271.149 154.907C270.426 154.362 269.605 153.956 268.714 153.679C267.813 153.401 266.863 153.263 265.843 153.263C263.982 153.263 262.319 153.728 260.874 154.659C259.429 155.591 258.291 156.948 257.469 158.711C256.647 160.484 256.242 162.624 256.242 165.14C256.242 167.656 256.657 169.796 257.479 171.57C258.301 173.333 259.439 174.68 260.894 175.601C262.349 176.523 263.992 176.978 265.843 176.978C266.843 176.978 267.793 176.84 268.694 176.562C269.595 176.285 270.406 175.879 271.129 175.344C271.852 174.809 272.475 174.145 272.97 173.353C273.475 172.56 273.831 171.659 274.039 170.638H278.889C278.652 172.223 278.157 173.67 277.405 174.977C276.652 176.285 275.712 177.424 274.564 178.385C273.415 179.346 272.109 180.089 270.624 180.604C269.139 181.119 267.526 181.377 265.794 181.377L265.804 181.357Z" fill="black"/>
<path d="M281.352 153.471V149.31H305.91V153.471H296.061V180.911H291.25V153.471H281.352Z" fill="black"/>
<path d="M310.168 180.911V149.31H321.571C323.976 149.31 325.986 149.746 327.609 150.628C329.232 151.509 330.46 152.708 331.281 154.243C332.103 155.779 332.519 157.522 332.519 159.474C332.519 161.426 332.103 163.189 331.272 164.724C330.44 166.26 329.203 167.468 327.57 168.35C325.936 169.232 323.917 169.678 321.502 169.678H313.474V165.566H321.126C322.64 165.566 323.877 165.309 324.847 164.794C325.817 164.279 326.53 163.565 326.995 162.644C327.461 161.723 327.698 160.673 327.698 159.484C327.698 158.295 327.461 157.245 326.995 156.344C326.53 155.442 325.808 154.729 324.838 154.224C323.867 153.718 322.62 153.461 321.106 153.461H315.008V180.921H310.178L310.168 180.911Z" fill="black"/>
<path d="M30.7344 111.943H15.8867V69.0485C15.8867 63.5801 20.3212 59.1421 25.7852 59.1421H68.6456V74.0016H30.7344V111.943Z" fill="black"/>
<path d="M68.6456 181.357H25.7852C20.3212 181.357 15.8867 176.919 15.8867 171.451V128.556H30.7344V166.498H68.6456V181.357Z" fill="black"/>
<path d="M127.778 181.357H84.918V166.498H122.829V128.556H137.677V171.451C137.677 176.919 133.242 181.357 127.778 181.357Z" fill="black"/>
<path d="M138.211 113.469H83.6211V58.835H98.4688V88.7027C98.4688 94.171 102.903 98.609 108.367 98.609H138.211V113.469Z" fill="#0086FF"/>
</svg>
